<svg xmlns:dc="http://purl.org/dc/elements/1.1/" xmlns:cc="http://creativecommons.org/ns#" xmlns:rdf="http://www.w3.org/1999/02/22-rdf-syntax-ns#" xmlns="http://www.w3.org/2000/svg" xmlns:xlink="http://www.w3.org/1999/xlink" height="962.251" width="1000"><metadata><rdf:RDF><cc:Work><dc:format>image/svg+xml</dc:format><dc:type rdf:resource="http://purl.org/dc/dcmitype/StillImage"/><dc:title>Waves.js Logo</dc:title><dc:date>18 February 2018</dc:date><dc:creator><cc:Agent><dc:title>Sefa Eyeoglu &lt;contact@scrumplex.net&gt;</dc:title></cc:Agent></dc:creator><dc:rights><cc:Agent><dc:title>GPL-3.0</dc:title></cc:Agent></dc:rights><cc:license rdf:resource="https://www.gnu.org/licenses/gpl.html"/></cc:Work></rdf:RDF></metadata><defs><linearGradient id="a"><stop stop-color="#0d47a1" offset="0"/><stop stop-color="#1a237e" offset="1"/></linearGradient><linearGradient id="b"><stop stop-color="#1976d2" offset="0"/><stop stop-color="#303f9f" offset="1"/></linearGradient><linearGradient id="c"><stop stop-color="#2196f3" offset="0"/><stop stop-color="#3f51b5" offset="1"/></linearGradient><linearGradient gradientTransform="translate(-273.577 -1066.935) scale(2.9812)" y2="574.016" x2="322.202" y1="574.016" x1="199.459" gradientUnits="userSpaceOnUse" id="d" xlink:href="#a"/><linearGradient gradientTransform="translate(-273.577 -1066.935) scale(2.9812)" y2="556.299" x2="260.83" y1="556.299" x1="138.087" gradientUnits="userSpaceOnUse" id="e" xlink:href="#b"/><linearGradient gradientTransform="translate(-273.577 -1066.935) scale(2.9812)" y2="512.008" x2="199.459" y1="512.008" x1="138.087" gradientUnits="userSpaceOnUse" id="f" xlink:href="#c"/></defs><g fill-rule="evenodd"><path transform="translate(-251.577 -452.183) scale(1.82187)" fill="url(#d)" d="M504.01 670.73l182.962-105.634-91.48-52.816C504.01 565.096 412.53 617.913 321.048 670.73v105.632l182.96-105.632z"/><path transform="translate(-251.577 -452.183) scale(1.82187)" fill="url(#e)" d="M412.53 617.913V406.646C321.048 459.463 229.566 512.28 138.087 565.1v105.63l182.962-105.633v211.266l182.96-105.632c-24.028 13.292-61.778 22.928-80.262-4.03-9.355-14.355-11.072-32.083-11.217-48.787z"/><path fill="#2196f3" d="M166.667 481.125v-384.9L0 0v577.356"/><path transform="translate(-251.577 -452.183) scale(1.82187)" fill="url(#f)" d="M229.568 512.28V301.013l-91.481-52.816v422.532l182.962-105.633c-24.029 13.293-61.78 22.929-80.264-4.03-9.355-14.354-11.072-32.083-11.217-48.786z"/></g></svg>